<?xml version="1.0" standalone="no"?>
<!DOCTYPE svg PUBLIC "-//W3C//DTD SVG 20010904//EN"
 "http://www.w3.org/TR/2001/REC-SVG-20010904/DTD/svg10.dtd">
<svg version="1.0" xmlns="http://www.w3.org/2000/svg"
 width="866.000000pt" height="337.000000pt" viewBox="0 0 866.000000 337.000000"
 preserveAspectRatio="xMidYMid meet">

<g transform="translate(0.000000,337.000000) scale(0.100000,-0.100000)"
fill="#b71b4b" stroke="none">
<path d="M7025 3264 c-546 -35 -1028 -407 -1226 -946 -124 -337 -118 -743 16
-1078 63 -158 174 -338 272 -441 l33 -35 -61 -190 c-34 -104 -79 -243 -101
-309 -63 -191 -61 -179 -35 -162 12 8 85 50 163 94 78 45 152 87 165 96 13 8
49 28 79 45 30 16 90 50 133 74 l78 45 72 -27 c429 -167 884 -114 1276 148 47
31 132 104 191 162 400 398 540 993 360 1540 -155 468 -534 828 -995 944 -130
32 -292 48 -420 40z m273 -209 c592 -96 1032 -631 1032 -1255 0 -330 -133
-665 -352 -892 -175 -179 -367 -284 -627 -340 -130 -28 -377 -30 -501 -4 -92
20 -226 66 -277 96 l-31 18 -109 -70 c-59 -39 -141 -93 -181 -120 -41 -27 -75
-48 -77 -46 -2 2 28 86 67 188 38 102 71 190 71 196 1 7 -25 40 -58 75 -92 98
-128 146 -189 254 -66 118 -97 195 -131 329 -115 453 29 946 369 1263 40 38
104 89 142 115 76 51 224 128 246 128 8 0 18 4 24 9 9 9 195 57 249 64 75 10
248 6 333 -8z"/>
<path d="M6540 1806 l0 -836 175 0 175 0 0 305 0 305 128 0 127 0 22 -48 c12
-26 35 -76 51 -112 16 -36 42 -92 57 -125 15 -33 36 -80 47 -105 11 -25 38
-84 60 -133 l41 -87 189 0 c103 0 188 3 188 6 0 5 -81 176 -244 516 -31 64
-56 121 -56 125 0 4 28 24 62 43 101 58 180 172 207 298 16 75 13 235 -4 311
-30 127 -99 228 -198 292 -110 72 -112 72 -594 76 l-433 4 0 -835z m809 499
c67 -40 76 -62 76 -199 0 -136 -8 -160 -68 -196 -29 -18 -52 -20 -249 -20
l-218 0 0 221 0 221 213 -4 c190 -3 215 -5 246 -23z"/>
<path d="M950 2360 l0 -360 75 0 75 0 0 150 0 150 35 0 c74 0 97 -20 196 -164
l93 -136 89 0 89 0 -23 38 c-80 130 -132 202 -171 238 l-45 42 39 11 c141 43
185 227 79 332 -50 50 -101 59 -336 59 l-195 0 0 -360z m372 229 c70 -19 87
-104 31 -149 -22 -17 -41 -20 -139 -20 l-114 0 0 90 0 90 93 0 c50 0 109 -5
129 -11z"/>
<path d="M4570 2360 l0 -360 70 0 70 0 0 160 c0 170 7 207 48 244 28 24 97 25
120 2 14 -14 18 -47 22 -209 l5 -192 68 -3 67 -3 0 208 c0 178 -3 213 -18 242
-30 60 -63 76 -151 76 -68 0 -83 -3 -119 -28 l-42 -27 0 125 0 125 -70 0 -70
0 0 -360z"/>
<path d="M1765 2512 c-46 -22 -88 -67 -112 -121 -23 -50 -23 -212 0 -262 27
-61 64 -97 123 -118 124 -47 257 -11 311 84 13 22 23 43 23 46 0 3 -30 11 -67
17 -60 11 -69 10 -78 -5 -23 -39 -46 -53 -82 -53 -56 1 -103 46 -103 99 0 20
5 21 171 21 l172 0 -7 60 c-13 113 -45 177 -110 218 -56 35 -181 42 -241 14z
m162 -104 c18 -9 53 -71 53 -93 0 -3 -45 -5 -100 -5 -95 0 -100 1 -100 21 0
27 37 78 64 89 22 9 47 5 83 -12z"/>
<path d="M2425 2515 c-16 -9 -40 -26 -52 -37 l-23 -21 0 31 0 32 -65 0 -65 0
0 -260 0 -260 70 0 70 0 0 158 c0 214 12 248 92 267 21 5 33 1 52 -19 l26 -25
0 -191 0 -190 70 0 70 0 1 138 c0 173 9 226 41 258 32 33 82 35 111 6 20 -20
21 -34 25 -212 l4 -190 70 0 70 0 -4 208 c-3 171 -7 213 -21 242 -24 48 -61
72 -118 78 -70 7 -115 -5 -155 -40 l-35 -31 -35 34 c-31 30 -41 34 -102 37
-48 2 -76 -2 -97 -13z"/>
<path d="M3315 2515 c-16 -9 -40 -26 -52 -37 l-23 -21 0 31 0 32 -65 0 -65 0
0 -260 0 -260 70 0 70 0 0 158 c0 214 12 248 92 267 21 5 33 1 52 -19 l26 -25
0 -191 0 -190 70 0 70 0 1 138 c0 173 9 226 41 258 32 33 82 35 111 6 20 -20
21 -34 25 -212 l4 -190 70 0 70 0 -4 208 c-3 171 -7 213 -21 242 -24 48 -61
72 -118 78 -70 7 -115 -5 -155 -40 l-35 -31 -35 34 c-31 30 -41 34 -102 37
-48 2 -76 -2 -97 -13z"/>
<path d="M4070 2508 c-62 -33 -85 -68 -85 -133 0 -93 44 -130 209 -172 94 -23
123 -41 113 -68 -10 -24 -75 -48 -113 -41 -39 8 -84 41 -84 63 0 13 -9 15 -61
9 -86 -10 -89 -12 -78 -45 13 -37 61 -85 107 -107 53 -25 166 -30 234 -10 93
27 153 114 133 193 -17 71 -56 96 -210 137 -55 15 -107 34 -115 42 -25 25 20
54 82 54 42 0 54 -4 78 -30 27 -29 27 -29 89 -18 34 6 61 17 61 23 0 27 -48
81 -90 103 -36 18 -61 22 -135 22 -74 0 -99 -4 -135 -22z"/>
<path d="M1895 1644 c-10 -15 -22 -23 -31 -20 -8 3 -20 9 -28 12 -10 4 -21 -6
-31 -27 -17 -31 -17 -33 6 -50 32 -25 46 -24 60 4 6 12 13 23 14 25 2 2 15 -4
29 -13 25 -16 25 -16 45 23 l20 39 -34 16 c-33 16 -34 15 -50 -9z"/>
<path d="M2315 1560 c-21 -40 -20 -44 20 -63 l35 -17 15 36 c20 47 19 49 -10
62 -37 17 -43 15 -60 -18z"/>
<path d="M4071 1524 c-12 -19 -21 -39 -21 -44 0 -9 80 -55 84 -48 13 18 46 81
44 82 -13 9 -80 46 -83 46 -1 0 -12 -16 -24 -36z"/>
<path d="M1912 1491 c-7 -21 -12 -45 -12 -52 0 -8 -21 -26 -45 -41 -33 -20
-52 -42 -75 -88 -17 -34 -29 -68 -26 -75 3 -8 29 -16 61 -20 53 -7 58 -6 86
21 28 27 29 27 29 6 0 -34 30 -102 51 -112 10 -6 47 -10 82 -10 50 0 70 5 91
21 l27 21 21 -22 c18 -20 27 -21 97 -16 100 7 110 7 215 0 80 -6 91 -4 117 15
l29 22 66 -21 c104 -32 104 -32 104 48 -1 52 -7 79 -28 122 -15 30 -34 56 -44
58 -22 4 -82 -50 -98 -88 -15 -37 -56 -60 -105 -60 -34 0 -35 1 -35 38 -1 20
-6 50 -13 66 l-13 29 -18 -28 c-13 -20 -17 -38 -12 -66 l6 -38 -30 10 c-28 10
-30 13 -24 51 6 35 5 40 -11 36 -11 -2 -22 -16 -27 -35 -11 -41 -42 -63 -91
-63 -61 0 -77 14 -77 65 0 33 -4 45 -15 45 -8 0 -15 -9 -15 -21 0 -54 -51 -89
-130 -89 -48 0 -52 2 -65 33 -7 18 -22 88 -31 155 -10 67 -21 122 -25 122 -3
0 -11 -17 -17 -39z m1 -145 c7 -19 -12 -36 -40 -36 -29 0 -29 14 -1 34 28 20
34 20 41 2z m835 -94 c12 -19 12 -22 0 -22 -23 0 -52 26 -44 39 10 16 26 10
44 -17z"/>
<path d="M2392 1485 c-13 -27 -23 -30 -52 -15 -17 9 -22 5 -39 -28 l-20 -39
36 -19 c24 -13 37 -15 40 -8 2 6 10 20 18 30 11 15 16 17 26 7 21 -20 37 -15
54 17 21 40 19 47 -15 65 -37 19 -35 19 -48 -10z"/>
<path d="M705 1430 c-10 -22 -16 -42 -14 -43 2 -2 21 -13 41 -24 40 -24 43
-22 71 33 l16 31 -38 21 c-21 12 -43 22 -48 22 -6 0 -18 -18 -28 -40z"/>
<path d="M1235 1421 c-53 -32 -70 -59 -70 -109 0 -26 4 -57 8 -69 7 -19 5 -23
-12 -23 -18 0 -21 6 -21 48 0 31 -8 59 -22 82 l-21 35 -13 -30 c-17 -39 -17
-66 1 -89 30 -39 20 -46 -65 -46 l-79 0 -7 38 c-4 20 -14 52 -24 71 l-17 35
-17 -52 c-17 -51 -17 -54 4 -106 15 -36 20 -63 16 -81 -19 -76 -246 -89 -285
-17 -18 33 -13 67 18 126 18 32 26 58 20 62 -16 9 -37 -14 -66 -74 -38 -77
-39 -168 -4 -206 31 -32 81 -49 151 -50 122 0 182 32 201 110 l11 44 132 0
c131 0 187 9 326 50 64 19 66 21 83 67 9 27 17 51 17 54 0 4 -35 -4 -77 -17
-100 -31 -111 -30 -161 6 -43 31 -53 54 -28 63 35 14 105 17 146 8 67 -15 74
1 23 50 -37 34 -48 39 -90 39 -29 0 -60 -7 -78 -19z"/>
<path d="M5125 1421 c-53 -32 -70 -59 -70 -109 0 -26 4 -57 8 -69 7 -19 5 -23
-12 -23 -14 0 -22 8 -27 28 -12 56 -25 91 -39 102 -11 9 -15 1 -24 -40 -10
-46 -9 -55 9 -80 31 -44 26 -70 -27 -121 -87 -84 -121 -95 -190 -63 -24 12
-37 14 -45 6 -18 -18 93 -84 150 -89 44 -5 50 -2 93 36 26 22 54 59 63 81 14
35 20 40 48 40 36 0 128 20 228 50 64 19 66 21 83 67 9 27 17 51 17 54 0 4
-35 -4 -77 -17 -100 -31 -111 -30 -161 6 -43 31 -53 54 -28 63 35 14 105 17
146 8 67 -15 74 1 23 50 -37 34 -48 39 -90 39 -29 0 -60 -7 -78 -19z"/>
<path d="M4199 1362 c-24 -16 -80 -54 -123 -85 -43 -31 -82 -57 -87 -57 -4 0
-10 17 -14 38 -3 20 -15 53 -25 72 l-18 35 -15 -53 c-15 -49 -15 -55 3 -98 34
-78 24 -112 -40 -138 -45 -18 -135 -21 -174 -6 -39 14 -66 47 -66 79 0 15 13
53 30 84 18 35 26 58 19 62 -15 10 -33 -9 -62 -69 -32 -65 -43 -151 -25 -185
32 -60 133 -90 236 -71 84 15 122 49 137 123 l5 27 195 0 195 0 0 83 c0 45 -5
99 -10 119 -20 72 -85 88 -161 40z m92 -82 c54 -29 -16 -63 -119 -58 l-57 3
49 33 c51 33 92 40 127 22z"/>
<path d="M3289 1340 c-11 -35 -10 -45 4 -70 28 -46 23 -50 -63 -50 -79 0 -80
0 -86 28 -12 56 -25 91 -39 102 -11 9 -15 1 -24 -40 -10 -46 -9 -55 9 -80 31
-44 26 -70 -27 -121 -87 -84 -121 -95 -190 -63 -24 12 -37 14 -45 6 -18 -18
93 -84 150 -89 44 -5 50 -2 93 36 26 22 54 59 63 81 l16 40 106 0 106 0 -7 98
c-10 136 -43 198 -66 122z"/>
<path d="M4596 1355 c-27 -29 -46 -87 -46 -142 0 -46 29 -83 65 -83 35 0 31
-14 -16 -51 -55 -43 -122 -51 -175 -20 -29 18 -39 19 -45 9 -10 -17 2 -28 75
-72 82 -49 122 -49 178 2 59 53 78 100 78 198 0 91 -13 141 -42 167 -27 23
-45 22 -72 -8z m64 -122 c0 -17 -21 -17 -45 1 -17 12 -17 16 -6 30 13 15 15
15 32 0 11 -10 19 -23 19 -31z"/>
<path d="M1051 1064 c-7 -17 -17 -24 -26 -20 -8 3 -21 9 -29 12 -10 4 -20 -5
-30 -25 -22 -41 -21 -45 19 -64 35 -17 36 -17 47 8 12 28 20 30 48 15 17 -9
22 -5 40 30 l20 39 -29 16 c-40 20 -46 19 -60 -11z"/>
<path d="M3210 1058 c-11 -18 -20 -39 -20 -45 0 -11 79 -59 84 -51 13 18 46
81 44 82 -16 11 -80 46 -84 46 -2 0 -13 -15 -24 -32z"/>
</g>
</svg>
