<?xml version="1.0" encoding="iso-8859-1"?>
<!-- Generator: Adobe Illustrator 19.0.0, SVG Export Plug-In . SVG Version: 6.00 Build 0)  -->
<svg version="1.1" id="Capa_1" xmlns="http://www.w3.org/2000/svg" xmlns:xlink="http://www.w3.org/1999/xlink" x="0px" y="0px"
	 viewBox="0 0 350 350" style="enable-background:new 0 0 350 350;" xml:space="preserve">
<g id="XMLID_796_">
	<g id="XMLID_797_">
		<path id="XMLID_798_" style="fill:#FF5023;" d="M175,149.161c0-20.239-40.48-30.359-50.599,0C114.281,179.52,175,220,175,220
			V149.161z"/>
		<path id="XMLID_799_" style="fill:#FF9811;" d="M175,149.161c0-20.239,40.479-30.359,50.599,0C235.719,179.52,175,220,175,220
			V149.161z"/>
	</g>
	<g id="XMLID_800_">
		<g id="XMLID_801_">
			<rect id="XMLID_44_" x="15" y="280" style="fill:#0052B4;" width="45" height="70"/>
		</g>
		<rect id="XMLID_42_" x="15" y="210" style="fill:#006DF0;" width="45" height="70"/>
		<path id="XMLID_802_" style="fill:#FFD6A0;" d="M336.772,249.118c-6.411-10.645-20.237-14.078-30.882-7.668l-72.64,37.113
			c4.165-4.083,6.751-9.771,6.751-16.064c0-12.427-10.074-22.5-22.5-22.5h-68.21c-28.289,0-41.623-20-89.291-20
			c0,50.345,0,100,0,100S73,329,90,340c15.169,9.815,22.29,10,33.837,10l74.497-0.027c9.333,0,18.667-3.973,29-8.973
			c10.334-5,101.771-61,101.771-61C339.75,273.589,343.182,259.764,336.772,249.118z"/>
		<path id="XMLID_804_" style="fill:#FFC170;" d="M59.999,220v100c0,0,13.001,9,30.001,20c15.169,9.815,22.29,10,33.837,10
			L175,349.981L59.999,220z"/>
	</g>
	<g id="XMLID_805_">
		<g id="XMLID_806_">
			<rect id="XMLID_37_" x="290" style="fill:#0052B4;" width="45" height="70"/>
		</g>
		<rect id="XMLID_35_" x="290" y="70" style="fill:#006DF0;" width="45" height="70"/>
		<path id="XMLID_33_" style="fill:#FFD6A0;" d="M13.228,100.882c6.411,10.646,20.237,14.078,30.882,7.668l72.64-37.113
			C112.586,75.52,110,81.207,110,87.5c0,12.427,10.074,22.5,22.5,22.5h68.21c28.289,0,41.623,20,89.291,20c0-50.345,0-100,0-100
			S277,21,260,10c-15.169-9.815-22.29-10-33.837-10l-74.496,0.027C142.334,0.027,133,4,122.667,9C112.333,14,20.896,70,20.896,70
			C10.25,76.411,6.818,90.236,13.228,100.882z"/>
		<path id="XMLID_32_" style="fill:#FFC170;" d="M290.001,130V30c0,0-13.001-9-30.001-20c-15.169-9.815-22.29-10-33.837-10
			L175,0.019L290.001,130z"/>
	</g>
</g>
<g>
</g>
<g>
</g>
<g>
</g>
<g>
</g>
<g>
</g>
<g>
</g>
<g>
</g>
<g>
</g>
<g>
</g>
<g>
</g>
<g>
</g>
<g>
</g>
<g>
</g>
<g>
</g>
<g>
</g>
</svg>
