<svg id="Layer_1" data-name="Layer 1" xmlns="http://www.w3.org/2000/svg" viewBox="0 0 122.88 80.19"><defs><style>.cls-1{fill:#262626;}.cls-1,.cls-2{fill-rule:evenodd;}.cls-2{fill:#d8453e;}</style></defs><title>referral</title><path class="cls-1" d="M23.12,45.55c3.35,9.84,17.33,10.21,20.47,0,3.7,3.33,12.28,4,16.36,6.27a10.41,10.41,0,0,1,3.38,2.87,13.75,13.75,0,0,1,2.53,7.43l.24,1.94-1.53.8a17.2,17.2,0,0,1-10.13,1.56,6.32,6.32,0,0,0-7,5.54c0,.2,0,.41-.05.61H3.91C1.45,72.38.2,71.11,0,68.91l.85-6.79a13.66,13.66,0,0,1,2.52-7.43,10.6,10.6,0,0,1,3.4-2.87c4.85-2.7,12.31-2.63,16.35-6.27ZM74.2,33.29l3.22-.09,2.68-.07C77,23.52,78,14.69,85.54,7.19c1.27,4.11,4.13,7.52,9,10a46.71,46.71,0,0,1,6.75,6.21c.39-1.58-1.08-3.51-2.87-5.5a8.65,8.65,0,0,1,4.25,4.16c1.25,2.54,1.24,4.7.82,7.46a15.94,15.94,0,0,1-1,3.58H107c4.69-10,1.71-25-7.88-31.27C96.15-.07,94,0,90.58,0c-4,0-6,.12-9.36,2.36-5,3.3-8.06,9-9.35,17-.26,3.95-.44,10.79,2.33,14ZM101.11,37c5.06,2,10.23,3.89,14.06,6.3,2.44,1.52,3.7,2.67,4.68,4.52,2.56,4.81,2.5,9.13,3,14.44H102.56l0-7.81a6.3,6.3,0,0,0-6.28-6.28L71.91,48a6.32,6.32,0,0,0-2.46.49,17.53,17.53,0,0,0-4.26-3.31c-.39-.22-.8-.42-1.23-.61.55-.42,1.19-.85,1.92-1.31,3.84-2.41,9-4.34,14.07-6.3,1.48,8.81,21,7.33,21.16,0ZM20.23,27.51a2.53,2.53,0,0,0-1.18.36,1.15,1.15,0,0,0-.41.47,1.63,1.63,0,0,0-.14.78A7.45,7.45,0,0,0,20,32.71l0,0h0l3.16,5a27,27,0,0,0,4.24,5.56,8.51,8.51,0,0,0,6,2.4,8.76,8.76,0,0,0,6.32-2.52A28,28,0,0,0,44,37.27l3.56-5.86c.73-1.64.94-2.66.7-3.14-.13-.27-.62-.38-1.42-.33a3.55,3.55,0,0,1-2-.07l1.44-4.05c-6.52-.08-11-1.21-16.25-4.59-1.73-1.1-2.25-2.37-4-2.24a5.83,5.83,0,0,0-3.28,1.77A8.49,8.49,0,0,0,21,22.47L22,27.54a3.58,3.58,0,0,1-1.8,0Zm28.32-1.46a2.46,2.46,0,0,1,1.61,1.31c.54,1.08.32,2.67-.68,5h0l-.06.12-3.61,5.94a29.61,29.61,0,0,1-4.71,6.38,10.76,10.76,0,0,1-7.75,3.07,10.55,10.55,0,0,1-7.37-3,28.25,28.25,0,0,1-4.58-6l-3.16-5a9.25,9.25,0,0,1-1.82-4.67,3.69,3.69,0,0,1,.33-1.71,3,3,0,0,1,1.14-1.33,3.67,3.67,0,0,1,.84-.42,53.61,53.61,0,0,1-.13-7.41A12.42,12.42,0,0,1,19,16.26a12.21,12.21,0,0,1,5.35-6.82A14.77,14.77,0,0,1,27.21,8c6.08-2.19,14.14-1,18.45,3.67a12.24,12.24,0,0,1,3.09,7.76l-.2,6.58Z"/><path class="cls-2" d="M96.21,54.42,71.88,54.3,78,60.39C71.91,69.63,64.11,73.93,53.7,72.7c12.77,11.17,26.72,8.77,36.42-.16l6.21,6.21-.12-24.33Z"/></svg>