<?xml version="1.0" standalone="no"?>
<!DOCTYPE svg PUBLIC "-//W3C//DTD SVG 20010904//EN"
 "http://www.w3.org/TR/2001/REC-SVG-20010904/DTD/svg10.dtd">
<svg version="1.0" xmlns="http://www.w3.org/2000/svg"
 width="523.000000pt" height="523.000000pt" viewBox="0 0 523.000000 523.000000"
 preserveAspectRatio="xMidYMid meet">
<metadata>
Created by potrace 1.14, written by Peter Selinger 2001-2017
</metadata>
<g transform="translate(0.000000,523.000000) scale(0.100000,-0.100000)"
fill="#000000" stroke="none">
<path d="M2479 5086 c-2 -2 -43 -6 -90 -9 -47 -4 -106 -11 -130 -16 -24 -5
-60 -13 -79 -16 -19 -3 -43 -8 -52 -11 -9 -3 -25 -6 -35 -8 -112 -22 -344
-110 -483 -184 -230 -122 -458 -303 -620 -491 -25 -29 -57 -67 -73 -84 -90
-104 -251 -375 -322 -542 -78 -185 -146 -441 -171 -640 -10 -84 -12 -445 -3
-520 19 -154 20 -161 54 -315 42 -195 151 -465 258 -645 66 -111 187 -278 254
-351 15 -17 36 -40 45 -51 20 -22 41 52 -178 -618 -54 -165 -99 -304 -100
-310 -1 -5 -12 -37 -23 -69 -12 -33 -20 -61 -18 -63 2 -1 107 56 233 129 126
72 288 165 359 206 72 41 146 84 165 94 19 11 64 37 100 58 36 21 82 47 103
59 l37 21 98 -39 c143 -57 319 -108 432 -124 90 -14 128 -19 165 -22 58 -6
333 -6 380 0 22 3 60 7 85 10 293 35 622 157 880 326 404 266 717 660 885
1116 43 117 97 314 110 398 3 22 10 67 14 100 21 137 31 441 17 505 -3 14 -8
59 -11 99 -4 41 -8 77 -10 80 -2 4 -6 31 -10 61 -9 71 -58 261 -95 364 -244
695 -788 1221 -1464 1417 -102 30 -262 64 -351 74 -58 7 -351 16 -356 11z
m354 -326 c344 -47 668 -190 932 -410 278 -233 483 -527 600 -862 39 -111 80
-266 90 -338 3 -25 8 -56 10 -70 22 -149 22 -416 0 -565 -12 -80 -36 -201 -45
-225 -5 -14 -11 -36 -14 -50 -9 -54 -83 -241 -137 -351 -136 -270 -290 -460
-539 -663 -114 -92 -433 -258 -543 -280 -6 -2 -19 -6 -27 -9 -65 -25 -233 -61
-370 -78 -89 -11 -349 -15 -397 -5 -15 3 -54 8 -87 11 -156 16 -394 87 -524
154 l-74 39 -206 -135 c-114 -74 -233 -152 -266 -172 -32 -20 -65 -42 -73 -50
-28 -27 -25 0 12 96 21 54 55 143 76 198 21 55 56 146 78 202 l39 103 -35 32
c-19 18 -68 71 -109 118 -42 47 -84 94 -93 105 -31 35 -147 216 -191 300 -104
195 -197 491 -215 685 -4 36 -8 71 -11 78 -5 18 -6 320 0 352 2 14 7 53 10 87
14 139 71 359 132 511 90 224 214 418 387 607 191 210 461 392 718 486 106 38
296 87 369 95 30 3 84 9 120 13 86 9 282 4 383 -9z"/>
<path d="M1710 2807 l0 -1302 270 0 270 0 0 477 0 478 195 0 196 0 33 -72 c18
-40 116 -253 216 -473 100 -220 186 -402 190 -405 13 -8 585 -6 587 2 3 9 -21
63 -110 248 -35 74 -85 178 -110 230 -25 52 -81 169 -124 260 -44 91 -91 190
-105 220 l-25 55 76 40 c106 55 222 172 278 280 65 128 95 262 94 427 0 90
-17 253 -27 270 -3 5 -8 21 -10 36 -9 46 -82 193 -126 251 -100 132 -209 203
-403 262 -29 9 -217 13 -702 15 l-663 4 0 -1303z m1220 792 c60 -18 122 -81
139 -139 14 -51 19 -274 7 -335 -15 -79 -56 -130 -131 -166 -37 -17 -68 -19
-367 -19 l-328 0 0 338 0 338 318 -1 c240 -1 328 -5 362 -16z"/>
</g>
</svg>
